<?xml version="1.0" encoding="UTF-8"?>
<svg version="1.1" xmlns="http://www.w3.org/2000/svg" width="192" height="192">
<path d="M0 0 C1.91807097 -0.00134968 3.83614161 -0.00329273 5.75421143 -0.00579834 C9.75495696 -0.0087325 13.75561264 -0.00450535 17.75634766 0.00488281 C22.87279233 0.01630732 27.98902782 0.00968808 33.10546494 -0.00226212 C37.05865039 -0.00950061 41.01178649 -0.00718417 44.96497345 -0.00200653 C46.85154495 -0.00067714 48.73812101 -0.00229271 50.62468719 -0.00696564 C53.26130508 -0.0120671 55.89758673 -0.00427135 58.53417969 0.00683594 C59.30524551 0.00278748 60.07631134 -0.00126099 60.8707428 -0.00543213 C66.35324387 0.03717079 72.07437206 0.19937206 76.140625 4.265625 C78.06164718 9.60726226 78.44803239 14.40724976 78.44140625 20.05078125 C78.44569138 20.87009628 78.4499765 21.68941132 78.45439148 22.53355408 C78.46010356 24.25551433 78.46065823 25.97749869 78.45629883 27.69946289 C78.4531298 30.32414953 78.47666751 32.94771722 78.50195312 35.57226562 C78.50422565 37.25260276 78.50492983 38.93294289 78.50390625 40.61328125 C78.513116 41.39155777 78.52232574 42.16983429 78.53181458 42.97169495 C78.49117413 47.78517323 77.81985457 51.10670946 75.140625 55.265625 C71.82902999 57.47335501 70.65169492 57.54951919 66.77954102 57.66430664 C65.6808519 57.7007579 64.58216278 57.73720917 63.45018005 57.77476501 C61.6591964 57.81858055 61.6591964 57.81858055 59.83203125 57.86328125 C57.96654381 57.91912132 57.96654381 57.91912132 56.06336975 57.97608948 C40.7735533 58.40835712 25.47666484 58.58813252 10.18188477 58.74243164 C6.42707947 58.78185651 2.67259735 58.83330165 -1.08203125 58.88671875 C-2.22551529 58.8951329 -3.36899933 58.90354706 -4.5471344 58.91221619 C-5.5977153 58.92885818 -6.6482962 58.94550018 -7.73071289 58.96264648 C-9.11293785 58.97810768 -9.11293785 58.97810768 -10.52308655 58.99388123 C-13.13010688 59.11760703 -13.13010688 59.11760703 -15.859375 61.265625 C-15.859375 61.925625 -15.859375 62.585625 -15.859375 63.265625 C-13.05423104 65.88023069 -11.14159402 66.64035713 -7.34130859 66.65039062 C-6.45293304 66.66050171 -5.5645575 66.67061279 -4.64926147 66.68103027 C-3.69508331 66.67800903 -2.74090515 66.67498779 -1.7578125 66.671875 C-0.76617096 66.68271118 0.22547058 66.69354736 1.24716187 66.70471191 C4.42004875 66.73897871 7.5925775 66.75455567 10.765625 66.765625 C14.9248193 66.78028127 19.08322498 66.81418943 23.2421875 66.859375 C24.65523666 66.85484314 24.65523666 66.85484314 26.09683228 66.85021973 C41.90956264 67.02644134 54.80414651 74.63552283 66.140625 85.265625 C79.0647138 98.88287427 82.59676918 113.32414044 82.2578125 131.703125 C82.19980469 133.4665625 82.19980469 133.4665625 82.140625 135.265625 C82.12257812 136.235 82.10453125 137.204375 82.0859375 138.203125 C81.58447609 148.35034415 78.16152684 157.87520201 71.140625 165.265625 C70.686875 166.090625 70.233125 166.915625 69.765625 167.765625 C67.45330174 171.32304541 64.44899476 173.65201289 61.140625 176.265625 C60.49609375 176.78511719 59.8515625 177.30460938 59.1875 177.83984375 C44.06544972 189.65766651 27.84171928 189.74169134 9.390625 189.734375 C7.20157682 189.74148703 5.01253048 189.74918753 2.82348633 189.75744629 C-1.73865976 189.77082183 -6.30063288 189.77248826 -10.86279297 189.76660156 C-16.70828379 189.76067297 -22.55295336 189.79145969 -28.39828491 189.83171844 C-32.9072924 189.85754156 -37.41609966 189.86047848 -41.9251709 189.85682678 C-44.08136074 189.8585191 -46.23755972 189.86817226 -48.39367676 189.88597107 C-51.39973775 189.90808306 -54.40410158 189.8985024 -57.41015625 189.88085938 C-58.2974794 189.89412262 -59.18480255 189.90738586 -60.09901428 189.92105103 C-64.54567242 189.86034896 -66.29695855 189.71388492 -69.88745117 186.85217285 C-73.29360913 182.384358 -73.035799 178.7639338 -73.0625 173.3125 C-73.06820007 172.41952209 -73.07390015 171.52654419 -73.07977295 170.60650635 C-73.08922986 168.71343167 -73.09575967 166.82034048 -73.09960938 164.92724609 C-73.10928974 162.04104524 -73.14029591 159.15556411 -73.171875 156.26953125 C-73.17840764 154.42969173 -73.18365709 152.58984711 -73.1875 150.75 C-73.2060202 149.46062531 -73.2060202 149.46062531 -73.22491455 148.14520264 C-73.20636534 143.11438373 -72.7101314 139.59603586 -69.859375 135.265625 C-65.98774579 132.68453886 -62.74960156 132.95845875 -58.25708008 132.94677734 C-56.93969093 132.93170891 -56.93969093 132.93170891 -55.59568787 132.91633606 C-52.69010071 132.88542286 -49.78460603 132.86844633 -46.87890625 132.8515625 C-44.86536356 132.8328574 -42.85182877 132.81328448 -40.83830261 132.7928772 C-35.53651577 132.74148052 -30.23470348 132.70189513 -24.93280029 132.66473389 C-19.52349517 132.62474146 -14.11429654 132.57362742 -8.70507812 132.5234375 C1.91008152 132.42658899 12.5253012 132.34221278 23.140625 132.265625 C23.140625 130.285625 23.140625 128.305625 23.140625 126.265625 C22.0482251 126.25104248 20.9558252 126.23645996 19.83032227 126.22143555 C15.69053977 126.16248327 11.55124775 126.08527914 7.41186523 126.00317383 C5.63655692 125.97037183 3.86115547 125.94220869 2.08569336 125.91918945 C-7.08309637 125.79721574 -16.10265248 125.48754194 -25.15625 123.94140625 C-25.82220688 123.8305217 -26.48816376 123.71963715 -27.17430115 123.60539246 C-42.89393241 120.61950801 -56.19339102 109.09230523 -65.46484375 96.52734375 C-67.85249046 92.65494194 -69.36489876 88.54365176 -70.859375 84.265625 C-71.21257812 83.43933594 -71.56578125 82.61304687 -71.9296875 81.76171875 C-72.85499721 79.27737882 -73.21186819 77.20991243 -73.421875 74.578125 C-73.68245975 71.29891844 -73.68245975 71.29891844 -74.859375 68.265625 C-74.95652842 65.93394282 -74.98915717 63.59932543 -74.984375 61.265625 C-74.98695312 60.0075 -74.98953125 58.749375 -74.9921875 57.453125 C-74.859375 54.265625 -74.859375 54.265625 -73.859375 52.265625 C-73.66794764 50.5368887 -73.48126179 48.80762641 -73.296875 47.078125 C-70.61610239 30.13400502 -58.94549523 18.9911639 -45.921875 9.015625 C-31.03377942 0.50814181 -16.6774964 -0.04151493 0 0 Z " fill="#149E51" transform="translate(101.859375,0.734375)"/>
<path d="M0 0 C1.91807097 -0.00134968 3.83614161 -0.00329273 5.75421143 -0.00579834 C9.75495696 -0.0087325 13.75561264 -0.00450535 17.75634766 0.00488281 C22.87279233 0.01630732 27.98902782 0.00968808 33.10546494 -0.00226212 C37.05865039 -0.00950061 41.01178649 -0.00718417 44.96497345 -0.00200653 C46.85154495 -0.00067714 48.73812101 -0.00229271 50.62468719 -0.00696564 C53.26130508 -0.0120671 55.89758673 -0.00427135 58.53417969 0.00683594 C59.30524551 0.00278748 60.07631134 -0.00126099 60.8707428 -0.00543213 C66.35324387 0.03717079 72.07437206 0.19937206 76.140625 4.265625 C78.06164718 9.60726226 78.44803239 14.40724976 78.44140625 20.05078125 C78.44569138 20.87009628 78.4499765 21.68941132 78.45439148 22.53355408 C78.46010356 24.25551433 78.46065823 25.97749869 78.45629883 27.69946289 C78.4531298 30.32414953 78.47666751 32.94771722 78.50195312 35.57226562 C78.50422565 37.25260276 78.50492983 38.93294289 78.50390625 40.61328125 C78.513116 41.39155777 78.52232574 42.16983429 78.53181458 42.97169495 C78.49117413 47.78517323 77.81985457 51.10670946 75.140625 55.265625 C71.82902999 57.47335501 70.65169492 57.54951919 66.77954102 57.66430664 C65.6808519 57.7007579 64.58216278 57.73720917 63.45018005 57.77476501 C61.6591964 57.81858055 61.6591964 57.81858055 59.83203125 57.86328125 C57.96654381 57.91912132 57.96654381 57.91912132 56.06336975 57.97608948 C40.7735533 58.40835712 25.47666484 58.58813252 10.18188477 58.74243164 C6.42707947 58.78185651 2.67259735 58.83330165 -1.08203125 58.88671875 C-2.22551529 58.8951329 -3.36899933 58.90354706 -4.5471344 58.91221619 C-5.5977153 58.92885818 -6.6482962 58.94550018 -7.73071289 58.96264648 C-9.11293785 58.97810768 -9.11293785 58.97810768 -10.52308655 58.99388123 C-13.13010688 59.11760703 -13.13010688 59.11760703 -15.859375 61.265625 C-15.859375 61.925625 -15.859375 62.585625 -15.859375 63.265625 C-13.05423104 65.88023069 -11.14159402 66.64035713 -7.34130859 66.65039062 C-6.45293304 66.66050171 -5.5645575 66.67061279 -4.64926147 66.68103027 C-3.69508331 66.67800903 -2.74090515 66.67498779 -1.7578125 66.671875 C-0.76617096 66.68271118 0.22547058 66.69354736 1.24716187 66.70471191 C4.42004875 66.73897871 7.5925775 66.75455567 10.765625 66.765625 C14.9248193 66.78028127 19.08322498 66.81418943 23.2421875 66.859375 C24.65523666 66.85484314 24.65523666 66.85484314 26.09683228 66.85021973 C32.71854213 66.92401396 40.76633727 67.22800889 45.92227173 71.86950684 C46.32432831 72.33022583 46.72638489 72.79094482 47.140625 73.265625 C44.500625 72.935625 41.860625 72.605625 39.140625 72.265625 C39.140625 71.605625 39.140625 70.945625 39.140625 70.265625 C38.16129753 70.26348747 38.16129753 70.26348747 37.16218567 70.26130676 C30.36477688 70.24161527 23.56826675 70.18735279 16.77124023 70.11303711 C14.23484749 70.08984482 11.69835828 70.07545855 9.16186523 70.07006836 C5.51484976 70.06078842 1.86935436 70.01981447 -1.77734375 69.97265625 C-2.91084763 69.9765889 -4.0443515 69.98052155 -5.21220398 69.98457336 C-13.05315353 69.83936991 -13.05315353 69.83936991 -17.1105957 66.9519043 C-18.859375 64.265625 -18.859375 64.265625 -18.921875 60.578125 C-17.859375 57.265625 -17.859375 57.265625 -16.30030823 56.07653809 C-12.80228955 54.91444603 -9.38769805 54.97384453 -5.74194336 54.97851562 C-4.51934563 54.96826607 -4.51934563 54.96826607 -3.27204895 54.95780945 C-1.50529163 54.9442369 0.2615048 54.93517369 2.02830696 54.93009949 C4.82300126 54.92180908 7.61736903 54.90130422 10.41197205 54.87756348 C17.35077037 54.8211566 24.28964787 54.78591517 31.22857666 54.74993896 C37.09529968 54.71872226 42.96186379 54.67955588 48.82845879 54.62968445 C51.58439614 54.60958566 54.34021122 54.60129118 57.09620667 54.59338379 C58.78167164 54.58041455 60.4671325 54.56689471 62.15258789 54.55273438 C63.30517593 54.55420723 63.30517593 54.55420723 64.48104858 54.55570984 C68.23991985 54.51160783 69.93292451 54.404092 73.140625 52.265625 C73.57724126 50.25225135 73.57724126 50.25225135 73.48120117 47.90771484 C73.48086128 46.55654068 73.48086128 46.55654068 73.48051453 45.17807007 C73.46503067 44.20407257 73.44954681 43.23007507 73.43359375 42.2265625 C73.42934891 41.23057037 73.42510406 40.23457825 73.42073059 39.20840454 C73.4039018 36.01887275 73.36624176 32.82996667 73.328125 29.640625 C73.3130836 27.48177994 73.29939425 25.322925 73.28710938 23.1640625 C73.25398467 17.86436888 73.20374396 12.56504163 73.140625 7.265625 C72.480625 7.265625 71.820625 7.265625 71.140625 7.265625 C70.810625 6.605625 70.480625 5.945625 70.140625 5.265625 C58.30863982 5.14909511 46.47679412 5.06058979 34.6443491 5.00656414 C29.14835205 4.98061715 23.65275142 4.94549539 18.15698242 4.88842773 C12.84010433 4.83357152 7.52360431 4.80409286 2.20646477 4.79123878 C0.19133501 4.78209414 -1.82377717 4.76424081 -3.83874321 4.73697472 C-16.42635391 4.57362182 -28.16382241 5.16524688 -39.859375 10.265625 C-40.519375 11.255625 -41.179375 12.245625 -41.859375 13.265625 C-43.52216827 14.2720525 -45.18920984 15.27147907 -46.859375 16.265625 C-47.58125 16.9875 -48.303125 17.709375 -49.046875 18.453125 C-49.645 19.05125 -50.243125 19.649375 -50.859375 20.265625 C-51.519375 20.265625 -52.179375 20.265625 -52.859375 20.265625 C-53.10945313 20.87921875 -53.35953125 21.4928125 -53.6171875 22.125 C-55.07053177 24.62950521 -56.183288 25.22564138 -58.734375 26.515625 C-63.3989122 29.26542451 -64.91835359 32.34711442 -66.859375 37.265625 C-67.41625 38.420625 -67.973125 39.575625 -68.546875 40.765625 C-70.98829105 47.27606779 -71.02653475 54.01406915 -70.984375 60.890625 C-70.98244141 61.66390137 -70.98050781 62.43717773 -70.97851562 63.23388672 C-70.92642416 70.27346982 -70.49070359 77.25336816 -69.859375 84.265625 C-70.519375 83.935625 -71.179375 83.605625 -71.859375 83.265625 C-72.45703125 80.39453125 -72.45703125 80.39453125 -72.921875 76.828125 C-73.39996204 72.39858798 -73.39996204 72.39858798 -74.859375 68.265625 C-74.95652842 65.93394282 -74.98915717 63.59932543 -74.984375 61.265625 C-74.98695312 60.0075 -74.98953125 58.749375 -74.9921875 57.453125 C-74.859375 54.265625 -74.859375 54.265625 -73.859375 52.265625 C-73.66794764 50.5368887 -73.48126179 48.80762641 -73.296875 47.078125 C-70.61610239 30.13400502 -58.94549523 18.9911639 -45.921875 9.015625 C-31.03377942 0.50814181 -16.6774964 -0.04151493 0 0 Z " fill="#06391E" transform="translate(101.859375,0.734375)"/>
<path d="M0 0 C1.79206547 0.14084796 3.58364917 0.28783701 5.375 0.4375 C6.87160156 0.55931641 6.87160156 0.55931641 8.3984375 0.68359375 C11 1 11 1 13 2 C14.61711793 2.13197647 16.23918863 2.2054252 17.86108398 2.24951172 C18.8723082 2.27979462 19.88353241 2.31007751 20.92539978 2.34127808 C22.02122879 2.37045319 23.1170578 2.3996283 24.24609375 2.4296875 C26.55014877 2.50332776 28.85418478 2.57756494 31.15820312 2.65234375 C34.80333752 2.7660005 38.4484257 2.87529618 42.09399414 2.97412109 C45.60356232 3.07140478 49.11217048 3.18665509 52.62109375 3.3046875 C54.26180092 3.34237747 54.26180092 3.34237747 55.93565369 3.38082886 C57.45721825 3.43570969 57.45721825 3.43570969 59.00952148 3.49169922 C59.90283676 3.51755096 60.79615204 3.54340271 61.71653748 3.57003784 C64.43285007 4.08150304 65.35367491 4.81344948 67 7 C67.328125 9.19140625 67.328125 9.19140625 67.25 11.5625 C67.23453125 12.34753906 67.2190625 13.13257813 67.203125 13.94140625 C67 16 67 16 66 18 C34.98 18 3.96 18 -28 18 C-29.31116859 21.93350578 -29.16251978 25.69599279 -29.16796875 29.796875 C-29.17129715 30.66387024 -29.17462555 31.53086548 -29.17805481 32.4241333 C-29.18311802 34.25996368 -29.18546332 36.09580327 -29.18530273 37.93164062 C-29.18748083 40.72541729 -29.20561967 43.51879364 -29.22460938 46.3125 C-29.22754519 48.09895699 -29.22952873 49.88541585 -29.23046875 51.671875 C-29.23765427 52.50128601 -29.24483978 53.33069702 -29.25224304 54.1852417 C-29.23289023 59.1584393 -28.74426034 63.32052029 -27 68 C-24.67887212 69.16056394 -23.35672375 69.12333738 -20.77328491 69.12025452 C-19.88704941 69.12162918 -19.0008139 69.12300385 -18.08772278 69.12442017 C-16.62576729 69.11902725 -16.62576729 69.11902725 -15.13427734 69.11352539 C-14.10986038 69.11367142 -13.08544342 69.11381744 -12.02998352 69.1139679 C-8.6319469 69.11326926 -5.23396458 69.10547911 -1.8359375 69.09765625 C0.51532969 69.0957919 2.86659727 69.09436808 5.21786499 69.09336853 C11.41570095 69.08954471 17.6135136 69.07971556 23.81134033 69.06866455 C30.13203618 69.05844753 36.45273578 69.05387028 42.7734375 69.04882812 C55.18230193 69.03809319 67.59114903 69.02101838 80 69 C75.68363287 73.31636713 68.0881475 72.16540995 62.31030273 72.19287109 C61.35185455 72.20104858 60.39340637 72.20922607 59.40591431 72.21765137 C56.24848035 72.24237568 53.09109072 72.25898195 49.93359375 72.2734375 C48.85311327 72.27876118 47.77263279 72.28408485 46.65941048 72.28956985 C40.94783362 72.31623623 35.2362782 72.3356378 29.5246582 72.35009766 C24.79790037 72.36347127 20.07157071 72.3913964 15.3449707 72.43212891 C9.63217602 72.4813529 3.91977147 72.50620481 -1.79322624 72.51332474 C-3.96897586 72.5200469 -6.14471643 72.53529385 -8.32034492 72.55921555 C-11.3605948 72.59075584 -14.39932745 72.59092123 -17.43969727 72.58349609 C-18.78717796 72.6081041 -18.78717796 72.6081041 -20.16188049 72.63320923 C-24.63802701 72.58841305 -26.4183494 72.46214938 -30.03501892 69.58853149 C-33.42971931 65.1165857 -33.17643415 61.49623512 -33.203125 56.046875 C-33.21167511 54.70740814 -33.21167511 54.70740814 -33.22039795 53.34088135 C-33.22985486 51.44780667 -33.23638467 49.55471548 -33.24023438 47.66162109 C-33.24991474 44.77542024 -33.28092091 41.88993911 -33.3125 39.00390625 C-33.31903264 37.16406673 -33.32428209 35.32422211 -33.328125 33.484375 C-33.3404718 32.62479187 -33.3528186 31.76520874 -33.36553955 30.87957764 C-33.34699034 25.84875873 -32.8507564 22.33041086 -30 18 C-26.12837079 15.41891386 -22.89022656 15.69283375 -18.39770508 15.68115234 C-17.08031593 15.66608391 -17.08031593 15.66608391 -15.73631287 15.65071106 C-12.83072571 15.61979786 -9.92523103 15.60282133 -7.01953125 15.5859375 C-5.00598856 15.5672324 -2.99245377 15.54765948 -0.97892761 15.5272522 C4.32285923 15.47585552 9.62467152 15.43627013 14.92657471 15.39910889 C20.33587983 15.35911646 25.74507846 15.30800242 31.15429688 15.2578125 C41.76945652 15.16096399 52.3846762 15.07658778 63 15 C63 13.02 63 11.04 63 9 C61.9076001 8.98541748 60.8152002 8.97083496 59.68969727 8.95581055 C55.54991477 8.89685827 51.41062275 8.81965414 47.27124023 8.73754883 C45.49593192 8.70474683 43.72053047 8.67658369 41.94506836 8.65356445 C32.76608816 8.53145518 23.72117565 8.21983229 14.65234375 6.70703125 C13.97957901 6.60033615 13.30681427 6.49364105 12.61366272 6.38371277 C7.69609685 5.46588559 4.17944149 3.61869344 0 1 C0 0.67 0 0.34 0 0 Z " fill="#02200E" transform="translate(62,118)"/>
<path d="M0 0 C1.29596855 -0.00503792 1.29596855 -0.00503792 2.61811829 -0.01017761 C5.46596728 -0.01965544 8.31375733 -0.02162877 11.16162109 -0.02270508 C13.14269027 -0.02591858 15.12375921 -0.02928272 17.10482788 -0.03279114 C21.25234528 -0.03877354 25.39984187 -0.04063182 29.54736328 -0.04003906 C34.86837966 -0.0399372 40.18926333 -0.05361865 45.51024818 -0.07081127 C49.59881202 -0.08191129 53.6873435 -0.08395893 57.77592087 -0.08342934 C59.73837112 -0.08461135 61.70082216 -0.08904545 63.6632576 -0.0967617 C66.40190301 -0.10652634 69.14025643 -0.10369816 71.87890625 -0.09765625 C72.69248093 -0.10327576 73.5060556 -0.10889526 74.34428406 -0.11468506 C78.19668849 -0.09301735 80.02788349 -0.04285306 83.31005859 2.14526367 C82.18269791 2.14668869 81.05533722 2.14811371 79.89381409 2.14958191 C69.20027855 2.16634784 58.50711888 2.20941174 47.81378269 2.27735424 C42.31793974 2.31145164 36.82236969 2.33670719 31.32641602 2.34082031 C26.00930804 2.34514051 20.69281389 2.37390794 15.37589836 2.41869545 C13.36086559 2.43155257 11.34575891 2.43602066 9.33069038 2.43141747 C-3.22554216 2.40944218 -15.02058303 3.08488467 -26.68994141 8.14526367 C-27.34994141 9.13526367 -28.00994141 10.12526367 -28.68994141 11.14526367 C-30.35273468 12.15169118 -32.01977625 13.15111774 -33.68994141 14.14526367 C-34.41181641 14.86713867 -35.13369141 15.58901367 -35.87744141 16.33276367 C-36.47556641 16.93088867 -37.07369141 17.52901367 -37.68994141 18.14526367 C-38.34994141 18.14526367 -39.00994141 18.14526367 -39.68994141 18.14526367 C-39.94001953 18.75885742 -40.19009766 19.37245117 -40.44775391 20.00463867 C-41.90109817 22.50914388 -43.0138544 23.10528006 -45.56494141 24.39526367 C-50.22947861 27.14506318 -51.74891999 30.2267531 -53.68994141 35.14526367 C-54.24681641 36.30026367 -54.80369141 37.45526367 -55.37744141 38.64526367 C-57.81885745 45.15570646 -57.85710115 51.89370782 -57.81494141 58.77026367 C-57.81300781 59.54354004 -57.81107422 60.31681641 -57.80908203 61.11352539 C-57.75699056 68.1531085 -57.32127 75.13300683 -56.68994141 82.14526367 C-57.34994141 81.81526367 -58.00994141 81.48526367 -58.68994141 81.14526367 C-59.28759766 78.27416992 -59.28759766 78.27416992 -59.75244141 74.70776367 C-60.23052845 70.27822665 -60.23052845 70.27822665 -61.68994141 66.14526367 C-61.78709483 63.8135815 -61.81972358 61.4789641 -61.81494141 59.14526367 C-61.81751953 57.88713867 -61.82009766 56.62901367 -61.82275391 55.33276367 C-61.68994141 52.14526367 -61.68994141 52.14526367 -60.68994141 50.14526367 C-60.49851405 48.41652738 -60.3118282 46.68726508 -60.12744141 44.95776367 C-58.19391958 32.73672493 -50.85222494 21.26334915 -41.31494141 13.58276367 C-40.39970703 12.83897461 -39.48447266 12.09518555 -38.54150391 11.32885742 C-37.60048828 10.60827148 -36.65947266 9.88768555 -35.68994141 9.14526367 C-34.29001953 8.05665039 -34.29001953 8.05665039 -32.86181641 6.94604492 C-28.95702402 4.72916156 -25.7268618 4.27821517 -21.31494141 3.89526367 C-20.57888672 3.81791992 -19.84283203 3.74057617 -19.08447266 3.66088867 C-17.28777122 3.47421839 -15.48900028 3.30764903 -13.68994141 3.14526367 C-13.68994141 2.48526367 -13.68994141 1.82526367 -13.68994141 1.14526367 C-9.13888879 0.00354373 -4.66049295 -0.00260902 0 0 Z " fill="#0B6333" transform="translate(88.68994140625,2.854736328125)"/>
<path d="M0 0 C12.76458029 4.59157565 22.63217923 15.09890409 28.9375 26.8125 C34.25879493 38.21879422 34.40799645 49.59690787 34 62 C33.98195312 62.969375 33.96390625 63.93875 33.9453125 64.9375 C33.44385109 75.08471915 30.02090184 84.60957701 23 92 C22.54625 92.825 22.0925 93.65 21.625 94.5 C19.31267674 98.05742041 16.30836976 100.38638789 13 103 C12.35546875 103.51949219 11.7109375 104.03898437 11.046875 104.57421875 C6.79230027 107.89915215 2.22418194 111.40860004 -3 113 C-5.234375 112.59765625 -5.234375 112.59765625 -7 112 C-5.515 111.505 -5.515 111.505 -4 111 C-3.34 110.01 -2.68 109.02 -2 108 C-0.30660755 107.28308933 1.38857643 106.56979021 3.09667969 105.88867188 C6.35672468 104.36653696 8.92836687 102.09976831 11.625 99.75 C12.19259033 99.26490967 12.76018066 98.77981934 13.3449707 98.2800293 C17.2493096 94.86522004 20.18422973 91.36929869 23 87 C23.66 87 24.32 87 25 87 C25.10957031 86.40832031 25.21914062 85.81664062 25.33203125 85.20703125 C26.66932503 78.54230694 26.66932503 78.54230694 28.5625 75.4375 C31.99347179 69.61976523 31.15477291 61.52227576 31.125 54.9375 C31.12886719 54.07833984 31.13273437 53.21917969 31.13671875 52.33398438 C31.12926867 47.45790464 30.80796353 42.82311051 30 38 C29.8453125 36.6078125 29.8453125 36.6078125 29.6875 35.1875 C29.460625 34.465625 29.23375 33.74375 29 33 C28.34 32.690625 27.68 32.38125 27 32.0625 C26.34 31.711875 25.68 31.36125 25 31 C24.25 27.875 24.25 27.875 24 25 C23.34 25 22.68 25 22 25 C20.62340232 23.27852222 19.32227237 21.49622345 18.0625 19.6875 C13.25477169 12.79377782 13.25477169 12.79377782 6 9 C6 8.34 6 7.68 6 7 C4.02 6.34 2.04 5.68 0 5 C0 3.35 0 1.7 0 0 Z " fill="#012010" transform="translate(150,74)"/>
<path d="M0 0 C1.25750816 -0.00503792 1.25750816 -0.00503792 2.54042053 -0.01017761 C5.2932384 -0.01962497 8.04599508 -0.02162734 10.79882812 -0.02270508 C12.72261581 -0.0259211 14.64640325 -0.02928543 16.57019043 -0.03279114 C20.59481371 -0.03876621 24.61941557 -0.04063262 28.64404297 -0.04003906 C33.79197517 -0.03993733 38.9397698 -0.05360824 44.08766937 -0.07081127 C48.05801013 -0.08194584 52.02831772 -0.08395785 55.99867249 -0.08342934 C57.89641292 -0.08460653 59.79415429 -0.08901364 61.69187927 -0.0967617 C64.3480691 -0.10659454 67.0039613 -0.10367097 69.66015625 -0.09765625 C70.43750626 -0.10327576 71.21485626 -0.10889526 72.01576233 -0.11468506 C77.51588353 -0.08314849 83.24839249 0.06357803 87.33007812 4.14526367 C87.33007812 5.46526367 87.33007812 6.78526367 87.33007812 8.14526367 C86.67007813 8.14526367 86.01007813 8.14526367 85.33007812 8.14526367 C83.99674479 6.81193034 82.66341146 5.47859701 81.33007812 4.14526367 C77.34056983 2.81542757 73.51918757 3.01451694 69.3605957 3.03173828 C68.44332199 3.03159225 67.52604828 3.03144623 66.58097839 3.03129578 C63.5454981 3.0319931 60.51007897 3.03977711 57.47460938 3.04760742 C55.37139418 3.04947224 53.26817855 3.05089584 51.16496277 3.05189514 C45.62638146 3.05571528 40.08782633 3.06554131 34.54925537 3.07659912 C28.89872593 3.08682403 23.24819227 3.09139508 17.59765625 3.09643555 C6.50845203 3.107164 -4.58073274 3.12423442 -15.66992188 3.14526367 C-15.66992188 3.80526367 -15.66992188 4.46526367 -15.66992188 5.14526367 C-24.0984933 7.43097796 -24.0984933 7.43097796 -28.66992188 7.14526367 C-26.33030035 4.42583346 -24.3505717 3.48979514 -20.91992188 2.52026367 C-19.69015625 2.16061523 -19.69015625 2.16061523 -18.43554688 1.79370117 C-12.27436013 0.34912914 -6.29136538 -0.00366779 0 0 Z " fill="#001B0D" transform="translate(90.669921875,0.854736328125)"/>
<path d="M0 0 C0.495 0.99 0.495 0.99 1 2 C-2.740212 4.49347467 -5.67199556 4.29966393 -10.00390625 4.30297852 C-10.81882538 4.31141785 -11.63374451 4.31985718 -12.47335815 4.32855225 C-15.16974461 4.35436295 -17.86602154 4.36647825 -20.5625 4.37890625 C-22.43433503 4.39507768 -24.3061616 4.4122573 -26.17797852 4.43040466 C-31.10872489 4.47613001 -36.03948251 4.51091401 -40.97033691 4.54260254 C-48.86328244 4.59443985 -56.75610341 4.65959023 -64.64889526 4.73081779 C-67.40922957 4.75367218 -70.16954805 4.76993032 -72.92993164 4.78553772 C-74.6186541 4.79894406 -76.30737493 4.81255883 -77.99609375 4.82641602 C-78.76605682 4.82902939 -79.5360199 4.83164276 -80.32931519 4.83433533 C-83.48306075 4.86512616 -85.98561259 4.9952042 -89 6 C-89.33425735 8.37374861 -89.33425735 8.37374861 -89 11 C-86.21603067 13.64049405 -84.27935828 14.37473968 -80.48193359 14.38476562 C-79.14937027 14.39993225 -79.14937027 14.39993225 -77.78988647 14.41540527 C-76.83570831 14.41238403 -75.88153015 14.40936279 -74.8984375 14.40625 C-73.41097519 14.42250427 -73.41097519 14.42250427 -71.89346313 14.43908691 C-68.72057625 14.47335371 -65.5480475 14.48893067 -62.375 14.5 C-58.2158057 14.51465627 -54.05740002 14.54856443 -49.8984375 14.59375 C-48.48538834 14.58921814 -48.48538834 14.58921814 -47.04379272 14.58459473 C-40.42208287 14.65838896 -32.37428773 14.96238389 -27.21835327 19.60388184 C-26.81629669 20.06460083 -26.41424011 20.52531982 -26 21 C-28.64 20.67 -31.28 20.34 -34 20 C-34 19.34 -34 18.68 -34 18 C-34.97932747 17.99786247 -34.97932747 17.99786247 -35.97843933 17.99568176 C-42.77584812 17.97599027 -49.57235825 17.92172779 -56.36938477 17.84741211 C-58.90577751 17.82421982 -61.44226672 17.80983355 -63.97875977 17.80444336 C-67.62577524 17.79516342 -71.27127064 17.75418947 -74.91796875 17.70703125 C-76.05147263 17.7109639 -77.1849765 17.71489655 -78.35282898 17.71894836 C-86.19377853 17.57374491 -86.19377853 17.57374491 -90.2512207 14.6862793 C-92 12 -92 12 -92.0625 8.3125 C-91 5 -91 5 -89.44093323 3.81091309 C-85.94291455 2.64882103 -82.52832305 2.70821953 -78.88256836 2.71289062 C-77.65997063 2.70264107 -77.65997063 2.70264107 -76.41267395 2.69218445 C-74.64591663 2.6786119 -72.8791202 2.66954869 -71.11231804 2.66447449 C-68.31762374 2.65618408 -65.52325597 2.63567922 -62.72865295 2.61193848 C-55.78985463 2.5555316 -48.85097713 2.52029017 -41.91204834 2.48431396 C-36.04532532 2.45309726 -30.17876121 2.41393088 -24.31216621 2.36405945 C-21.55622886 2.34396066 -18.80041378 2.33566618 -16.04441833 2.32775879 C-14.35895336 2.31478955 -12.6734925 2.30126971 -10.98803711 2.28710938 C-9.83544907 2.28858223 -9.83544907 2.28858223 -8.65957642 2.29008484 C-4.90070515 2.24598283 -3.20770049 2.138467 0 0 Z " fill="#09582D" transform="translate(175,53)"/>
<path d="M0 0 C0.99 0.33 1.98 0.66 3 1 C1.44555348 2.46691458 -0.11892175 3.92320641 -1.6875 5.375 C-2.55761719 6.18710938 -3.42773438 6.99921875 -4.32421875 7.8359375 C-7 10 -7 10 -9.578125 11 C-16.65464744 13.92191894 -21.08264261 23.24475983 -24 30 C-24.556875 31.155 -25.11375 32.31 -25.6875 33.5 C-28.12891605 40.01044279 -28.16715975 46.74844415 -28.125 53.625 C-28.12306641 54.39827637 -28.12113281 55.17155273 -28.11914062 55.96826172 C-28.06704916 63.00784482 -27.63132859 69.98774316 -27 77 C-27.66 76.67 -28.32 76.34 -29 76 C-29.59765625 73.12890625 -29.59765625 73.12890625 -30.0625 69.5625 C-30.54058704 65.13296298 -30.54058704 65.13296298 -32 61 C-32.09715342 58.66831782 -32.12978217 56.33370043 -32.125 54 C-32.12757812 52.741875 -32.13015625 51.48375 -32.1328125 50.1875 C-32 47 -32 47 -31 45 C-30.80857264 43.2712637 -30.62188679 41.54200141 -30.4375 39.8125 C-27.83319972 23.35173181 -16.69845901 12.27089702 -4.0546875 2.49609375 C-2.5 1.375 -2.5 1.375 0 0 Z " fill="#03240F" transform="translate(59,8)"/>
<path d="M0 0 C1.79206547 0.14084796 3.58364917 0.28783701 5.375 0.4375 C6.87160156 0.55931641 6.87160156 0.55931641 8.3984375 0.68359375 C11 1 11 1 13 2 C14.61711793 2.13197647 16.23918863 2.2054252 17.86108398 2.24951172 C18.8723082 2.27979462 19.88353241 2.31007751 20.92539978 2.34127808 C22.02122879 2.37045319 23.1170578 2.3996283 24.24609375 2.4296875 C26.55014877 2.50332776 28.85418478 2.57756494 31.15820312 2.65234375 C34.80333752 2.7660005 38.4484257 2.87529618 42.09399414 2.97412109 C45.60356232 3.07140478 49.11217048 3.18665509 52.62109375 3.3046875 C54.26180092 3.34237747 54.26180092 3.34237747 55.93565369 3.38082886 C57.45721825 3.43570969 57.45721825 3.43570969 59.00952148 3.49169922 C59.90283676 3.51755096 60.79615204 3.54340271 61.71653748 3.57003784 C64.43285007 4.08150304 65.35367491 4.81344948 67 7 C67.328125 9.19140625 67.328125 9.19140625 67.25 11.5625 C67.23453125 12.34753906 67.2190625 13.13257813 67.203125 13.94140625 C67 16 67 16 66 18 C65.34 17.67 64.68 17.34 64 17 C64.12568359 16.04287109 64.12568359 16.04287109 64.25390625 15.06640625 C64.35574219 14.24011719 64.45757812 13.41382813 64.5625 12.5625 C64.66691406 11.73878906 64.77132812 10.91507813 64.87890625 10.06640625 C64.91886719 9.38449219 64.95882812 8.70257813 65 8 C63.35416144 6.35416144 61.44704493 6.86683084 59.17993164 6.8581543 C58.15118423 6.85111984 57.12243683 6.84408539 56.06251526 6.83683777 C54.93973679 6.83267349 53.81695831 6.82850922 52.66015625 6.82421875 C50.29361108 6.8010018 47.92707461 6.77688373 45.56054688 6.75195312 C41.8214757 6.7169628 38.08272013 6.68757301 34.34350586 6.67407227 C30.74032873 6.65850727 27.13808424 6.61821851 23.53515625 6.57421875 C22.43059586 6.57612717 21.32603546 6.57803558 20.18800354 6.58000183 C13.19251831 6.47087283 7.15939942 5.50677973 1 2 C0.67 1.34 0.34 0.68 0 0 Z " fill="#0B5E2F" transform="translate(62,118)"/>
<path d="M0 0 C0.66 0 1.32 0 2 0 C0.25 3.875 0.25 3.875 -2 5 C-3.75168901 5.14970097 -5.50861822 5.23977236 -7.265625 5.30102539 C-8.91896851 5.36053627 -8.91896851 5.36053627 -10.60571289 5.42124939 C-11.80832764 5.45883865 -13.01094238 5.49642792 -14.25 5.53515625 C-16.1225647 5.5977639 -16.1225647 5.5977639 -18.03295898 5.66163635 C-27.04173602 5.94689885 -36.04992563 6.12430021 -45.0625 6.24609375 C-46.29436035 6.26282135 -47.5262207 6.27954895 -48.79541016 6.29678345 C-53.82465835 6.36270884 -58.85387581 6.42589897 -63.88330078 6.47680664 C-67.63069928 6.51628031 -71.37777736 6.56771879 -75.125 6.62109375 C-76.26332275 6.6295079 -77.40164551 6.63792206 -78.57446289 6.64659119 C-80.15022095 6.67155418 -80.15022095 6.67155418 -81.7578125 6.69702148 C-83.13670654 6.71248268 -83.13670654 6.71248268 -84.54345703 6.72825623 C-87.12134182 7.01342288 -88.7777585 7.69635933 -91 9 C-90.6875 7.0625 -90.6875 7.0625 -90 5 C-86.29795082 3.76598361 -82.85306086 3.83150783 -78.99609375 3.81054688 C-78.18117462 3.80225357 -77.36625549 3.79396027 -76.52664185 3.78541565 C-74.75713031 3.76801979 -72.98759581 3.7528517 -71.2180481 3.73963928 C-68.4193114 3.71861336 -65.62069008 3.69159077 -62.82202148 3.66296387 C-55.87151824 3.59312373 -48.92093252 3.53372896 -41.97033691 3.47393799 C-36.09721012 3.42301904 -30.22414524 3.36819463 -24.35110474 3.30812073 C-21.59077794 3.28152248 -18.83044543 3.2607228 -16.07006836 3.2401123 C-14.38134483 3.22351066 -12.69262393 3.20663894 -11.00390625 3.18945312 C-9.84896164 3.1831765 -9.84896164 3.1831765 -8.67068481 3.17677307 C-5.51933342 3.13956017 -3.01188082 3.00396027 0 2 C0 1.34 0 0.68 0 0 Z " fill="#001D11" transform="translate(176,53)"/>
<path d="M0 0 C0.66 0 1.32 0 2 0 C5 4.38461538 5 4.38461538 5 7 C5.66 7 6.32 7 7 7 C7.33 8.65 7.66 10.3 8 12 C8.86625 12.061875 8.86625 12.061875 9.75 12.125 C12.55360537 13.21529098 13.21694462 14.74365345 14.73046875 17.24609375 C16.77882143 20.07597176 19.42866243 22.15828821 22.09765625 24.38671875 C23.83683312 25.86162645 25.48905366 27.29135975 27 29 C27 29.66 27 30.32 27 31 C27.99 31 28.98 31 30 31 C30 31.66 30 32.32 30 33 C19.11758562 31.59146055 10.77973229 20.01430769 4.3515625 11.92578125 C1.78185225 8.26431549 0 4.48914333 0 0 Z " fill="#0B5A2B" transform="translate(32,85)"/>
<path d="M0 0 C-2 3 -2 3 -5 4 C-15.74837389 5.71826131 -26.90062228 5.18308245 -37.75 5.203125 C-38.78426117 5.20595238 -39.81852234 5.20877975 -40.88412476 5.21169281 C-46.34055836 5.22659717 -51.79696605 5.23588608 -57.25341797 5.24023438 C-62.89043403 5.24575495 -68.52721292 5.26988246 -74.16415405 5.29820633 C-78.50491044 5.31678416 -82.84560857 5.32203536 -87.18640137 5.32357025 C-89.26608601 5.32660037 -91.34576954 5.33464093 -93.42541504 5.34775543 C-96.32155941 5.36473937 -99.21710782 5.36295634 -102.11328125 5.35644531 C-102.97353409 5.3656601 -103.83378693 5.37487488 -104.72010803 5.3843689 C-110.6076721 5.3427362 -110.6076721 5.3427362 -112.74333191 3.47703171 C-113.15803238 2.98961124 -113.57273285 2.50219078 -114 2 C-113.04504135 2.16265854 -112.0900827 2.32531708 -111.10618591 2.49290466 C-106.50115748 3.1462746 -101.9447084 3.13245745 -97.30102539 3.11352539 C-96.35390686 3.11367142 -95.40678833 3.11381744 -94.43096924 3.1139679 C-91.31984111 3.1132747 -88.20877385 3.10551015 -85.09765625 3.09765625 C-82.93289726 3.09578996 -80.76813786 3.09436705 -78.6033783 3.09336853 C-72.92018456 3.08955994 -67.2370166 3.07974385 -61.55383301 3.06866455 C-55.74878284 3.05841473 -49.94372849 3.05386327 -44.13867188 3.04882812 C-32.7591033 3.03812006 -21.37955379 3.02106361 -10 3 C-10 2.34 -10 1.68 -10 1 C-8.71073008 0.63720544 -7.41846728 0.28503302 -6.125 -0.0625 C-5.40570313 -0.25972656 -4.68640625 -0.45695313 -3.9453125 -0.66015625 C-2 -1 -2 -1 0 0 Z " fill="#0D7238" transform="translate(148,183)"/>
<path d="M0 0 C8.37212789 2.98247594 17.32310962 9.28313088 22 17 C22.875 20.4375 22.875 20.4375 23 23 C23.66 23 24.32 23 25 23 C25.66 25.97 26.32 28.94 27 32 C26.01 31.01 25.02 30.02 24 29 C24 27.68 24 26.36 24 25 C23.34 25 22.68 25 22 25 C20.62340232 23.27852222 19.32227237 21.49622345 18.0625 19.6875 C13.25477169 12.79377782 13.25477169 12.79377782 6 9 C6 8.34 6 7.68 6 7 C4.02 6.34 2.04 5.68 0 5 C0 3.35 0 1.7 0 0 Z " fill="#0A5830" transform="translate(150,74)"/>
<path d="M0 0 C0 3.09882566 -0.42361423 4.17121363 -1.75 6.875 C-9.33641041 23.78185749 -10.81392215 43.17063873 -5 61 C-5.66 60.67 -6.32 60.34 -7 60 C-7 59.34 -7 58.68 -7 58 C-7.66 58 -8.32 58 -9 58 C-11.55368662 43.81791892 -14.56817992 23.57030925 -7 10.5625 C-6.34 9.716875 -5.68 8.87125 -5 8 C-4.649375 7.113125 -4.29875 6.22625 -3.9375 5.3125 C-2.96287541 2.90842602 -1.94442926 1.67927982 0 0 Z " fill="#10833E" transform="translate(41,27)"/>
<path d="M0 0 C0.495 0.99 0.495 0.99 1 2 C-2.740212 4.49347467 -5.67199556 4.29966393 -10.00390625 4.30297852 C-10.81882538 4.31141785 -11.63374451 4.31985718 -12.47335815 4.32855225 C-15.16974461 4.35436295 -17.86602154 4.36647825 -20.5625 4.37890625 C-22.43433503 4.39507768 -24.3061616 4.4122573 -26.17797852 4.43040466 C-31.10872489 4.47613001 -36.03948251 4.51091401 -40.97033691 4.54260254 C-48.86328244 4.59443985 -56.75610341 4.65959023 -64.64889526 4.73081779 C-67.40922957 4.75367218 -70.16954805 4.76993032 -72.92993164 4.78553772 C-74.6186541 4.79894406 -76.30737493 4.81255883 -77.99609375 4.82641602 C-78.76605682 4.82902939 -79.5360199 4.83164276 -80.32931519 4.83433533 C-83.48306075 4.86512616 -85.98561259 4.9952042 -89 6 C-89.33498301 8.33165034 -89.33498301 8.33165034 -89 11 C-87.10415891 13.31377147 -87.10415891 13.31377147 -85 15 C-87.97 14.505 -87.97 14.505 -91 14 C-92.25 7.375 -92.25 7.375 -90 4 C-86.29609321 2.7653644 -82.85448395 2.83951198 -78.99609375 2.82641602 C-77.77371506 2.8163855 -77.77371506 2.8163855 -76.52664185 2.80615234 C-74.75712579 2.7921046 -72.98759163 2.78020966 -71.2180481 2.77020454 C-68.41930545 2.7537996 -65.6206974 2.73056333 -62.82202148 2.70530701 C-54.86481418 2.63450695 -46.90755285 2.57433195 -38.95019531 2.52319336 C-34.08373761 2.49143988 -29.21743616 2.45017731 -24.35110474 2.40299797 C-22.49474897 2.38696027 -20.63835723 2.3746469 -18.7819519 2.36609077 C-16.18910809 2.3539655 -13.59663332 2.32982889 -11.00390625 2.30297852 C-10.23394318 2.30238937 -9.4639801 2.30180023 -8.67068481 2.30119324 C-4.91171324 2.24949204 -3.20714685 2.1380979 0 0 Z " fill="#06361B" transform="translate(175,53)"/>
<path d="M0 0 C0.55917114 0.32375107 1.11834229 0.64750214 1.69445801 0.98106384 C4.28251505 2.12485776 6.06943349 2.26877241 8.88867188 2.30297852 C10.34037781 2.32794151 10.34037781 2.32794151 11.82141113 2.35340881 C13.37934387 2.36603004 13.37934387 2.36603004 14.96875 2.37890625 C16.57743958 2.40439796 16.57743958 2.40439796 18.21862793 2.43040466 C21.64569209 2.48352983 25.07274472 2.52382146 28.5 2.5625 C31.92719282 2.60646301 35.35429302 2.65321014 38.78137207 2.70530701 C40.91370695 2.73719432 43.04612327 2.76410596 45.17858887 2.78553772 C46.14639282 2.79902756 47.11419678 2.8125174 48.11132812 2.82641602 C49.38562683 2.84068382 49.38562683 2.84068382 50.68566895 2.85523987 C52.91269873 2.99453935 54.86093008 3.38249978 57 4 C57 4.66 57 5.32 57 6 C59.97 6.33 62.94 6.66 66 7 C66 7.66 66 8.32 66 9 C64.04121221 8.71140117 62.08299559 8.41892543 60.125 8.125 C59.03445312 7.96257812 57.94390625 7.80015625 56.8203125 7.6328125 C53.97358613 7.16126887 51.2096627 6.60624887 48.39648438 5.98632812 C43.18234237 4.94002454 38.1426696 4.65663311 32.8359375 4.5859375 C31.91785309 4.56657135 30.99976868 4.5472052 30.05386353 4.5272522 C27.16099944 4.46812855 24.26809409 4.42134357 21.375 4.375 C19.39711938 4.33675817 17.41925431 4.29770297 15.44140625 4.2578125 C10.62773252 4.16248356 5.81398107 4.07820891 1 4 C0.67 2.68 0.34 1.36 0 0 Z " fill="#0E753C" transform="translate(84,67)"/>
<path d="M0 0 C0.66 0 1.32 0 2 0 C5.20890149 7.05958327 5.15923509 14.33160341 5.125 21.9375 C5.12886719 22.79279297 5.13273438 23.64808594 5.13671875 24.52929688 C5.11385748 39.51485669 5.11385748 39.51485669 1 45 C0.67 45 0.34 45 0 45 C0.33 41.04 0.66 37.08 1 33 C1.66 33 2.32 33 3 33 C2.88951407 29.29108609 2.75902886 25.58313189 2.625 21.875 C2.5940625 20.82828125 2.563125 19.7815625 2.53125 18.703125 C2.32998236 13.40307711 1.91517045 8.99812775 0 4 C0 2.68 0 1.36 0 0 Z " fill="#0C6D3B" transform="translate(177,107)"/>
<path d="M0 0 C19.8 0 39.6 0 60 0 C60 0.33 60 0.66 60 1 C59.2947821 1.00808685 58.58956421 1.01617371 57.86297607 1.02450562 C51.21237175 1.10249207 44.56196235 1.18979487 37.91161728 1.28752708 C34.49271441 1.33744294 31.07384172 1.38377312 27.65478516 1.421875 C23.72280523 1.46585076 19.7911375 1.52548319 15.859375 1.5859375 C14.02013458 1.60326431 14.02013458 1.60326431 12.14373779 1.62094116 C11.00285706 1.64081085 9.86197632 1.66068054 8.68652344 1.68115234 C7.68280701 1.69447601 6.67909058 1.70779968 5.6449585 1.7215271 C2.96429562 2.00375912 1.29779216 2.63066255 -1 4 C-0.67 2.68 -0.34 1.36 0 0 Z " fill="#000200" transform="translate(86,58)"/>
<path d="M0 0 C1 2 1 2 0.0625 5.125 C-0.4634375 6.548125 -0.4634375 6.548125 -1 8 C-1.66 8 -2.32 8 -3 8 C-3.26683594 8.58136719 -3.53367188 9.16273438 -3.80859375 9.76171875 C-8.34430645 18.28291014 -16.97332535 25.73772811 -26 29 C-24.74758322 25.10359223 -22.49078199 24.04430298 -19.00390625 22.1953125 C-12.87162051 18.53745785 -6.29081348 12.87244045 -4 6 C-3.34 6 -2.68 6 -2 6 C-1.34 4.02 -0.68 2.04 0 0 Z " fill="#0D6D3A" transform="translate(176,153)"/>
<path d="M0 0 C1.35106087 0.00022659 1.35106087 0.00022659 2.72941589 0.00045776 C3.69825211 0.01078033 4.66708832 0.02110291 5.6652832 0.03173828 C7.15714897 0.03598312 7.15714897 0.03598312 8.67915344 0.04031372 C11.85824576 0.05151589 15.03705717 0.07662064 18.21606445 0.10205078 C20.37035726 0.11208053 22.52465448 0.12120639 24.67895508 0.12939453 C29.96225417 0.15145532 35.24538925 0.18493322 40.52856445 0.22705078 C40.52856445 0.55705078 40.52856445 0.88705078 40.52856445 1.22705078 C25.34856445 1.55705078 10.16856445 1.88705078 -5.47143555 2.22705078 C-6.13143555 3.54705078 -6.79143555 4.86705078 -7.47143555 6.22705078 C-8.46143555 6.72205078 -8.46143555 6.72205078 -9.47143555 7.22705078 C-7.65113872 1.90618312 -5.70299889 -0.03194957 0 0 Z " fill="#000200" transform="translate(39.471435546875,133.77294921875)"/>
<path d="M0 0 C2.25 0.25 2.25 0.25 4 1 C3.0925 1.5775 2.185 2.155 1.25 2.75 C-1.97018576 4.83602168 -1.97018576 4.83602168 -4.25 7.25 C-4.8275 7.8275 -5.405 8.405 -6 9 C-6.66 9 -7.32 9 -8 9 C-8.226875 9.61875 -8.45375 10.2375 -8.6875 10.875 C-10.37929835 13.61410209 -11.99244161 14.05024472 -15 15 C-12.27319972 9.1268917 -9.83360712 6.85727696 -4 4 C-3.29875 3.2575 -2.5975 2.515 -1.875 1.75 C-1.25625 1.1725 -0.6375 0.595 0 0 Z " fill="#0F7B3C" transform="translate(57,12)"/>
<path d="M0 0 C8.98716947 3.20157755 16.24316473 9.53167316 22 17 C19 17 19 17 16.9375 15 C16.30328125 14.32517578 16.30328125 14.32517578 15.65625 13.63671875 C11.08679035 9.12114423 5.88635511 4.65089895 0 2 C0 1.34 0 0.68 0 0 Z " fill="#001307" transform="translate(150,74)"/>
<path d="M0 0 C0.66 0 1.32 0 2 0 C5 4.38461538 5 4.38461538 5 7 C5.66 7 6.32 7 7 7 C7.66 9.97 8.32 12.94 9 16 C4.76069809 12.23173163 2.00165951 8.34521366 0 3 C0 2.01 0 1.02 0 0 Z " fill="#053619" transform="translate(32,85)"/>
<path d="M0 0 C0 0.66 0 1.32 0 2 C-1.65 2 -3.3 2 -5 2 C-5 2.66 -5 3.32 -5 4 C-13.42857143 6.28571429 -13.42857143 6.28571429 -18 6 C-15.63860783 3.24504247 -13.58947346 2.30761472 -10.125 1.3125 C-9.28195313 1.06113281 -8.43890625 0.80976562 -7.5703125 0.55078125 C-4.96661379 -0.00715419 -2.65399031 -0.09988136 0 0 Z " fill="#02220F" transform="translate(80,2)"/>
<path d="M0 0 C6.96217572 -0.33687947 15.29986284 -0.32042876 20.7890625 4.60546875 C21.18867188 5.06566406 21.58828125 5.52585937 22 6 C19.36 5.67 16.72 5.34 14 5 C14 4.34 14 3.68 14 3 C13.15695313 2.95101562 12.31390625 2.90203125 11.4453125 2.8515625 C9.80175781 2.73941406 9.80175781 2.73941406 8.125 2.625 C7.03445312 2.55539063 5.94390625 2.48578125 4.8203125 2.4140625 C2 2 2 2 0 0 Z " fill="#00180C" transform="translate(127,68)"/>
<path d="M0 0 C0 3.18111969 -0.59460353 4.75579038 -1.875 7.625 C-2.22304688 8.42164063 -2.57109375 9.21828125 -2.9296875 10.0390625 C-4 12 -4 12 -6 13 C-7.05352843 15.30965848 -8.05719096 17.6429774 -9 20 C-9.33 19.34 -9.66 18.68 -10 18 C-9.08362673 15.5884914 -8.10709141 13.32263259 -7 11 C-6.67386719 10.29617187 -6.34773438 9.59234375 -6.01171875 8.8671875 C-4.33428076 5.35687324 -2.89289327 2.66277676 0 0 Z " fill="#0C6630" transform="translate(41,27)"/>
<path d="M0 0 C6.17222879 1.24028238 12.06682122 2.89603589 18 5 C18 5.33 18 5.66 18 6 C11.68609846 6.54903492 6.60731414 4.94330282 1 2 C0.67 1.34 0.34 0.68 0 0 Z " fill="#001808" transform="translate(62,118)"/>
<path d="M0 0 C1 2 1 2 0.51171875 3.91796875 C0.23972656 4.66691406 -0.03226563 5.41585937 -0.3125 6.1875 C-1.69159431 10.0970426 -2.89498864 14.00495892 -4 18 C-4.33 18 -4.66 18 -5 18 C-5.67090715 10.75420281 -3.58125682 6.24161903 0 0 Z " fill="#011709" transform="translate(34,34)"/>
<path d="M0 0 C-2 3 -2 3 -5 4 C-6.56118428 4.06740865 -8.1250252 4.08514456 -9.6875 4.0625 C-10.89986328 4.04896484 -10.89986328 4.04896484 -12.13671875 4.03515625 C-13.05904297 4.01775391 -13.05904297 4.01775391 -14 4 C-12.68 3.67 -11.36 3.34 -10 3 C-10 2.34 -10 1.68 -10 1 C-8.71073008 0.63720544 -7.41846728 0.28503302 -6.125 -0.0625 C-5.40570313 -0.25972656 -4.68640625 -0.45695313 -3.9453125 -0.66015625 C-2 -1 -2 -1 0 0 Z " fill="#09542C" transform="translate(148,183)"/>
<path d="M0 0 C4.43458973 1.3937282 6.87378374 3.60582235 10 7 C9.01 7.495 9.01 7.495 8 8 C7.34 7.67 6.68 7.34 6 7 C6 6.34 6 5.68 6 5 C4.02 4.34 2.04 3.68 0 3 C0 2.01 0 1.02 0 0 Z " fill="#0D6B39" transform="translate(150,76)"/>
<path d="M0 0 C0.99 0.33 1.98 0.66 3 1 C1.40112446 2.48488441 -0.20428905 3.96273145 -1.8125 5.4375 C-2.70582031 6.26121094 -3.59914063 7.08492187 -4.51953125 7.93359375 C-7 10 -7 10 -10 11 C-10 10.34 -10 9.68 -10 9 C-8.55139313 7.74893043 -7.09723133 6.50300227 -5.6015625 5.30859375 C-3.59523412 3.66927666 -1.79585899 1.86493049 0 0 Z " fill="#053216" transform="translate(59,8)"/>
<path d="M0 0 C3.01614813 1.1170919 4.64508669 2.6125776 6.625 5.0625 C8.67119397 8.00824713 8.67119397 8.00824713 11 9 C11 9.66 11 10.32 11 11 C7.84164893 9.60249952 5.67727175 7.94801766 3.25 5.5 C2.63640625 4.8915625 2.0228125 4.283125 1.390625 3.65625 C0 2 0 2 0 0 Z " fill="#001304" transform="translate(41,101)"/>
<path d="M0 0 C3.68428193 3.28953744 5.8406504 6.60132489 8 11 C7.67 11.99 7.34 12.98 7 14 C3 7.25 3 7.25 3 5 C2.34 5 1.68 5 1 5 C0.67 3.35 0.34 1.7 0 0 Z " fill="#000E05" transform="translate(172,92)"/>
<path d="M0 0 C4.75 0.875 4.75 0.875 7 2 C7 2.66 7 3.32 7 4 C7.99 4 8.98 4 10 4 C10 4.66 10 5.32 10 6 C5.16743695 5.58578031 3.17320782 3.53586014 0 0 Z " fill="#02200F" transform="translate(52,112)"/>
<path d="M0 0 C0.99 0.495 0.99 0.495 2 1 C1.01 1.495 1.01 1.495 0 2 C0 1.34 0 0.68 0 0 Z M-6 5 C-5.01 5.33 -4.02 5.66 -3 6 C-6.465 8.97 -6.465 8.97 -10 12 C-8 8 -8 8 -6 5 Z " fill="#139749" transform="translate(49,21)"/>
<path d="M0 0 C0.99 0.495 0.99 0.495 2 1 C2.4140625 3.50390625 2.4140625 3.50390625 2.625 6.5625 C2.69976563 7.57441406 2.77453125 8.58632812 2.8515625 9.62890625 C2.92503906 10.80259766 2.92503906 10.80259766 3 12 C1 11 1 11 0.375 9.375 C-0.12095645 6.2339425 -0.06103811 3.17398169 0 0 Z " fill="#011E0C" transform="translate(29,73)"/>
<path d="M0 0 C2.64 0.66 5.28 1.32 8 2 C8 2.66 8 3.32 8 4 C8.66 4.33 9.32 4.66 10 5 C7.69 4.67 5.38 4.34 3 4 C3 3.34 3 2.68 3 2 C2.01 2 1.02 2 0 2 C0 1.34 0 0.68 0 0 Z " fill="#0C6230" transform="translate(59,114)"/>
<path d="M0 0 C2.57471193 1.28735597 2.70416657 2.28489811 3.6875 4.9375 C3.95949219 5.64777344 4.23148438 6.35804687 4.51171875 7.08984375 C5 9 5 9 4 11 C3.67 10.01 3.34 9.02 3 8 C2.34 8 1.68 8 1 8 C0.67 5.36 0.34 2.72 0 0 Z " fill="#0B5F2D" transform="translate(31,77)"/>
<path d="M0 0 C3.7952131 1.49097658 5.61042731 3.75700849 8 7 C6.68 7 5.36 7 4 7 C2.39662274 4.74339496 1.23417783 2.46835565 0 0 Z " fill="#0D6D34" transform="translate(48,105)"/>
<path d="M0 0 C0.33 0.66 0.66 1.32 1 2 C1.66 2 2.32 2 3 2 C4.6875 3.8125 4.6875 3.8125 6 6 C5.67 6.99 5.34 7.98 5 9 C0 3.375 0 3.375 0 0 Z " fill="#000F06" transform="translate(35,92)"/>
<path d="M0 0 C3 1 3 1 3.94921875 2.84765625 C4.19285156 3.57855469 4.43648437 4.30945313 4.6875 5.0625 C4.93886719 5.79597656 5.19023438 6.52945313 5.44921875 7.28515625 C5.63097656 7.85105469 5.81273437 8.41695312 6 9 C5.34 9 4.68 9 4 9 C3.67 7.35 3.34 5.7 3 4 C2.34 4 1.68 4 1 4 C0.67 2.68 0.34 1.36 0 0 Z " fill="#10843E" transform="translate(36,88)"/>
</svg>
